<svg version="1.1" id="Layer_1" xmlns:x="ns_extend;" xmlns:i="ns_ai;" xmlns:graph="ns_graphs;" xmlns="http://www.w3.org/2000/svg" xmlns:xlink="http://www.w3.org/1999/xlink" x="0px" y="0px" viewBox="0 0 93.2 80" style="enable-background:new 0 0 93.2 80;" xml:space="preserve">
 <style type="text/css">
  .st0{fill:#FFFFFF;}
 </style>
 <metadata>
  <sfw xmlns="ns_sfw;">
   <slices>
   </slices>
   <sliceSourceBounds bottomLeftOrigin="true" height="80" width="93.2" x="306.7" y="0">
   </sliceSourceBounds>
  </sfw>
 </metadata>
 <g>
  <g>
   <rect x="48.7" y="53" class="st0" width="3.1" height="15.1">
   </rect>
   <g>
    <rect x="9.9" y="53" class="st0" width="3.1" height="15.1">
    </rect>
    <polygon class="st0" points="9.4,58.7 3.1,58.7 3.1,53 0,53 0,68.2 3.1,68.2 3.1,61.5 9.4,61.5 			">
    </polygon>
   </g>
   <path class="st0" d="M42.9,59.8c0.9-0.4,1.9-1.4,1.9-3c0-2.5-1.9-3.8-4.6-3.8h-7.1v15.1h7.6c3.2,0,5.2-1.7,5.2-4.3
			C45.9,61.5,44.4,60.1,42.9,59.8z M40.1,65.5h-3.9v-4l0,0v-2.6l0,0v-3.3h3.5c1.3,0,2.1,0.6,2.1,1.7c0,1-0.8,1.7-2.1,1.7h-2.9v2.6
			h3.4c1.5,0,2.5,0.7,2.5,2C42.6,64.8,41.6,65.5,40.1,65.5z">
   </path>
   <g>
    <rect x="59" y="56.4" class="st0" width="3.1" height="11.8">
    </rect>
    <rect x="54.2" y="53" class="st0" width="12.7" height="2.8">
    </rect>
   </g>
   <g>
    <rect x="85.3" y="56.4" class="st0" width="3.1" height="11.8">
    </rect>
    <rect x="80.5" y="53" class="st0" width="12.7" height="2.8">
    </rect>
   </g>
   <polygon class="st0" points="78.4,68.2 81.7,68.2 75.2,52.9 72.2,52.9 65.7,68.2 69,68.2 70.5,64.7 76.3,64.7 75.2,62.1
			71.4,62.1 73.7,56.8 		">
   </polygon>
   <polygon class="st0" points="27.7,68.2 31,68.2 24.6,52.9 21.6,52.9 15.1,68.2 18.3,68.2 19.8,64.7 25.7,64.7 24.6,62.1
			20.8,62.1 23,56.8 		">
   </polygon>
  </g>
  <g>
   <polygon class="st0" points="23.7,79.9 27.4,79.9 27.4,79.2 24.5,79.2 24.5,77.4 27.1,77.4 27.1,76.7 24.5,76.7 24.5,75 27.4,75
			27.4,74.2 23.7,74.2 		">
   </polygon>
   <polygon class="st0" points="35.4,78.6 32.1,74.2 31.8,74.2 31.7,74.1 31.7,74.2 31.5,74.2 31.5,79.9 32.2,79.9 32.2,75.6
			35.5,79.9 35.8,79.9 35.8,80 35.8,79.9 36.1,79.9 36.1,74.2 35.4,74.2 		">
   </polygon>
   <polygon class="st0" points="40.7,79.9 44.3,79.9 44.3,79.2 41.4,79.2 41.4,77.4 44,77.4 44,76.7 41.4,76.7 41.4,75 44.3,75
			44.3,74.2 40.7,74.2 		">
   </polygon>
   <path class="st0" d="M52.3,75.9c0-1-0.8-1.7-1.9-1.7h-2v5.7h0.7v-2.3h1l1.5,2.3h0.9l-1.5-2.4C51.8,77.3,52.3,76.7,52.3,75.9z
			 M50.5,76.9h-1.3V75h1.3c0.7,0,1.1,0.4,1.1,1S51.2,76.9,50.5,76.9z">
   </path>
   <path class="st0" d="M59,74.9c0.6,0,1,0.1,1.4,0.5l0.2,0.1l0.5-0.6l-0.2-0.1c-0.5-0.4-1.1-0.6-1.9-0.6c-1.6,0-2.8,1.3-2.8,2.9
			s1.3,2.9,2.9,2.9c0.8,0,1.3-0.1,1.8-0.4l0.1-0.1v-2.6h-0.7v2.1c-0.3,0.1-0.8,0.2-1.2,0.2c-1.2,0-2.2-1-2.2-2.2
			C56.9,75.9,57.9,74.9,59,74.9z">
   </path>
   <polygon class="st0" points="68.6,74.2 67,77.1 65.3,74.2 64.4,74.2 66.6,77.9 66.6,79.9 67.3,79.9 67.3,77.9 69.5,74.2 		">
   </polygon>
  </g>
  <g>
   <path class="st0" d="M54.5,31.4c0.5,0,1-0.4,1-1s-0.4-1-1-1c-0.5,0-1,0.4-1,1C53.6,31,54,31.4,54.5,31.4z">
   </path>
   <path class="st0" d="M36.6,23c-0.5,0-1,0.4-1,1c0,0.5,0.4,1,1,1c0.5,0,1-0.4,1-1S37.1,23,36.6,23z">
   </path>
   <path class="st0" d="M38.8,29.5c-0.5,0-1,0.4-1,1c0,0.5,0.4,1,1,1c0.5,0,1-0.4,1-1C39.8,29.9,39.4,29.5,38.8,29.5z">
   </path>
   <path class="st0" d="M56.7,24.9c0.5,0,1-0.4,1-1c0-0.5-0.4-1-1-1c-0.5,0-1,0.4-1,1S56.2,24.9,56.7,24.9z">
   </path>
   <path class="st0" d="M41.4,17.3c-0.5,0-1,0.4-1,1c0,0.5,0.4,1,1,1s1-0.4,1-1C42.3,17.7,41.9,17.3,41.4,17.3z">
   </path>
   <path class="st0" d="M53,18.2c0-0.5-0.4-1-1-1c-0.5,0-1,0.4-1,1s0.4,1,1,1C52.5,19.2,53,18.8,53,18.2z">
   </path>
   <path class="st0" d="M47.6,13.5c0-0.5-0.4-1-1-1c-0.5,0-1,0.4-1,1s0.4,1,1,1C47.2,14.5,47.6,14,47.6,13.5z">
   </path>
   <g>
    <path class="st0" d="M44.7,47.1H46V25.4l-5.2-1.9v-3c-1-0.3-1.7-1.1-1.7-2.1c0-1.2,1-2.2,2.2-2.2s2.2,1,2.2,2.2
				c0,1-0.7,1.8-1.5,2.1v2.2l4,1.4v-8.4c-0.9-0.3-1.6-1.1-1.6-2.1c0-1.2,1-2.2,2.2-2.2s2.2,1,2.2,2.2c0,1-0.7,1.9-1.6,2.1V24l4-1.5
				v-2.2c-0.9-0.3-1.5-1.1-1.5-2.1c0-1.2,1-2.2,2.2-2.2s2.2,1,2.2,2.2c0,1-0.7,1.9-1.7,2.1v3.1l-5.3,1.9v21.8h1.3V26.5l0,0v0l6-2.2
				c0-0.1,0-0.2,0-0.3c0-1.2,1-2.2,2.2-2.2s2.2,1,2.2,2.2c0,1.2-1,2.2-2.2,2.2c-0.7,0-1.2-0.3-1.7-0.7l-5.2,1.9v4.3l2.5-1
				c0-0.1,0-0.2,0-0.4c0-1.2,1-2.2,2.2-2.2s2.2,1,2.2,2.2c0,1.2-1,2.2-2.2,2.2c-0.7,0-1.2-0.3-1.6-0.7l-3,1.2V42
				c2.9-0.6,5.7-2.1,7.8-4.2C69.3,26.2,56.4,11.3,48,1.5L46.6,0l-0.5,0.5c-1.3,1.5-2.6,3-3.9,4.6c-3.9,4.7-8.2,10.3-10.1,16
				c-1.1,3.1-1.4,5.9-1,8.5c0.3,1.3,0.7,2.6,1.2,3.8c0.7,1.5,1.8,3,3.2,4.4c2.2,2.2,5,3.7,8,4.3v-9l-3-1.1c-0.4,0.4-1,0.7-1.6,0.7
				c-1.2,0-2.2-1-2.2-2.2s1-2.2,2.2-2.2s2.2,1,2.2,2.2c0,0.1,0,0.3,0,0.4l2.4,0.9v-4.3l-5.2-1.9c-0.4,0.4-1,0.7-1.7,0.7
				c-1.2,0-2.2-1-2.2-2.2c0-1.2,1-2.2,2.2-2.2s2.2,1,2.2,2.2c0,0.1,0,0.2,0,0.3l6,2.2L44.7,47.1z">
    </path>
   </g>
  </g>
 </g>
</svg>
