<svg version="1.1" id="Layer_1" xmlns:x="ns_extend;" xmlns:i="ns_ai;" xmlns:graph="ns_graphs;" xmlns="http://www.w3.org/2000/svg" xmlns:xlink="http://www.w3.org/1999/xlink" x="0px" y="0px" viewBox="0 0 31.4 47.1" style="enable-background:new 0 0 31.4 47.1;" xml:space="preserve">
 <style type="text/css">
  .st0{fill:#FFFFFF;}
 </style>
 <metadata>
  <sfw xmlns="ns_sfw;">
   <slices>
   </slices>
   <sliceSourceBounds bottomLeftOrigin="true" height="47.1" width="31.4" x="-33.2" y="32.9">
   </sliceSourceBounds>
  </sfw>
 </metadata>
 <g>
  <g>
   <path class="st0" d="M23.6,31.4c0.5,0,1-0.4,1-1s-0.4-1-1-1c-0.5,0-1,0.4-1,1C22.7,31,23.1,31.4,23.6,31.4z">
   </path>
   <path class="st0" d="M5.7,23c-0.5,0-1,0.4-1,1c0,0.5,0.4,1,1,1c0.5,0,1-0.4,1-1S6.2,23,5.7,23z">
   </path>
   <path class="st0" d="M7.9,29.5c-0.5,0-1,0.4-1,1c0,0.5,0.4,1,1,1c0.5,0,1-0.4,1-1S8.5,29.5,7.9,29.5z">
   </path>
   <path class="st0" d="M25.8,24.9c0.5,0,1-0.4,1-1c0-0.5-0.4-1-1-1c-0.5,0-1,0.4-1,1S25.3,24.9,25.8,24.9z">
   </path>
   <path class="st0" d="M10.5,17.3c-0.5,0-1,0.4-1,1c0,0.5,0.4,1,1,1s1-0.4,1-1C11.4,17.7,11,17.3,10.5,17.3z">
   </path>
   <path class="st0" d="M22.1,18.2c0-0.5-0.4-1-1-1c-0.5,0-1,0.4-1,1s0.4,1,1,1C21.6,19.2,22.1,18.8,22.1,18.2z">
   </path>
   <path class="st0" d="M16.7,13.5c0-0.5-0.4-1-1-1c-0.5,0-1,0.4-1,1s0.4,1,1,1C16.3,14.5,16.7,14,16.7,13.5z">
   </path>
   <g>
    <path class="st0" d="M13.8,47.1h1.3V25.4l-5.2-1.9v-3c-1-0.3-1.7-1.1-1.7-2.1c0-1.2,1-2.2,2.2-2.2s2.2,1,2.2,2.2
				c0,1-0.7,1.8-1.5,2.1v2.2l4,1.4v-8.4c-0.9-0.3-1.6-1.1-1.6-2.1c0-1.2,1-2.2,2.2-2.2s2.2,1,2.2,2.2c0,1-0.7,1.9-1.6,2.1V24l4-1.5
				v-2.2c-0.9-0.3-1.5-1.1-1.5-2.1c0-1.2,1-2.2,2.2-2.2s2.2,1,2.2,2.2c0,1-0.7,1.9-1.7,2.1v3.1l-5.3,1.9v21.8h1.3V26.5l0,0l0,0
				l6-2.2c0-0.1,0-0.2,0-0.3c0-1.2,1-2.2,2.2-2.2s2.2,1,2.2,2.2s-1,2.2-2.2,2.2c-0.7,0-1.2-0.3-1.7-0.7l-5.2,1.9v4.3l2.5-1
				c0-0.1,0-0.2,0-0.4c0-1.2,1-2.2,2.2-2.2s2.2,1,2.2,2.2s-1,2.2-2.2,2.2c-0.7,0-1.2-0.3-1.6-0.7l-3,1.2v9c2.9-0.6,5.7-2.1,7.8-4.2
				c11.7-11.6-1.2-26.5-9.6-36.3L15.7,0l-0.5,0.5c-1.3,1.5-2.6,3-3.9,4.6c-3.9,4.7-8.2,10.3-10.1,16c-1.1,3.1-1.4,5.9-1,8.5
				c0.3,1.3,0.7,2.6,1.2,3.8c0.7,1.5,1.8,3,3.2,4.4c2.2,2.2,5,3.7,8,4.3v-9l-3-1.1c-0.4,0.4-1,0.7-1.6,0.7c-1.2,0-2.2-1-2.2-2.2
				s1-2.2,2.2-2.2s2.2,1,2.2,2.2c0,0.1,0,0.3,0,0.4l2.4,0.9v-4.3l-5.2-1.9c-0.4,0.4-1,0.7-1.7,0.7c-1.2,0-2.2-1-2.2-2.2
				s1-2.2,2.2-2.2s2.2,1,2.2,2.2c0,0.1,0,0.2,0,0.3l6,2.2L13.8,47.1z">
    </path>
   </g>
  </g>
 </g>
</svg>